<?xml version="1.0" standalone="no"?>
<!DOCTYPE svg PUBLIC "-//W3C//DTD SVG 20010904//EN"
 "http://www.w3.org/TR/2001/REC-SVG-20010904/DTD/svg10.dtd">
<svg version="1.0" xmlns="http://www.w3.org/2000/svg"
 width="1440.000000pt" height="1440.000000pt" viewBox="0 0 1440.000000 1440.000000"
 preserveAspectRatio="xMidYMid meet">
<metadata>
Created by potrace 1.14, written by Peter Selinger 2001-2017
</metadata>
<g transform="translate(0.000000,1440.000000) scale(0.100000,-0.100000)"
fill="#000000" stroke="none">
<path d="M270 10456 c-1 -89 -1 -2574 0 -2599 0 -15 8 -18 48 -17 26 0 94 0
152 0 58 -1 108 -1 113 0 9 1 136 2 140 0 14 -7 98 -3 100 5 2 6 3 611 3 1345
l-1 1335 -277 1 -278 2 0 -72z"/>
<path d="M6469 10451 c-14 -5 -16 -39 -15 -294 1 -158 -2 -295 -5 -304 -4 -13
-18 -17 -53 -18 -26 0 -50 3 -52 7 -3 5 -13 4 -22 0 -21 -11 -132 -9 -149 1
-7 5 -13 4 -13 0 0 -5 -16 -9 -36 -9 l-36 1 0 -95 c1 -52 1 -113 1 -135 l1
-40 181 0 182 0 2 -565 c2 -311 6 -583 10 -605 14 -77 55 -191 92 -255 56 -96
182 -216 273 -262 84 -42 124 -58 159 -64 14 -3 29 -8 35 -12 6 -3 16 -7 21
-8 6 -1 27 -4 48 -8 20 -3 54 -9 75 -12 61 -10 247 -11 320 -2 131 17 370 87
409 119 13 11 11 15 -67 186 l-33 71 -53 -29 c-30 -16 -54 -26 -54 -23 0 4 -6
2 -12 -3 -14 -11 -71 -31 -109 -38 -13 -3 -37 -8 -54 -12 -45 -10 -165 -11
-210 -1 -55 13 -131 52 -172 91 -34 32 -102 141 -108 175 -2 9 -4 17 -5 17 -1
0 -3 7 -5 15 -1 8 -6 31 -11 50 -4 19 -9 292 -11 606 l-4 572 295 -2 c163 0
296 1 297 4 1 3 2 62 3 133 2 84 -1 128 -8 129 -6 0 -139 2 -296 3 l-285 1 -3
307 -2 307 -58 1 c-119 1 -167 1 -177 -1 -5 -1 -14 -2 -20 0 -24 4 -218 1
-223 -4 -3 -3 -10 -2 -16 3 -6 5 -18 6 -27 2z"/>
<path d="M4787 9914 c-1 -1 -47 -4 -102 -8 -141 -8 -191 -16 -310 -48 -113
-31 -254 -90 -263 -110 -2 -5 -8 -8 -13 -8 -10 0 -46 -29 -95 -77 -79 -78
-128 -207 -126 -333 1 -63 13 -144 24 -157 6 -7 7 -13 4 -13 -15 0 59 -123
100 -164 43 -44 143 -117 186 -136 13 -6 30 -14 38 -19 32 -19 111 -50 121
-47 3 0 13 -5 22 -13 10 -7 17 -11 17 -7 0 3 16 0 35 -8 20 -9 36 -15 38 -15
1 1 22 -5 47 -12 25 -7 50 -14 55 -15 6 -2 73 -21 150 -44 77 -23 147 -43 155
-44 9 -1 20 -5 26 -8 6 -4 23 -9 37 -12 55 -10 224 -68 286 -99 60 -29 169
-123 157 -135 -3 -3 -1 -11 5 -18 17 -21 13 -113 -8 -153 -30 -59 -93 -111
-168 -136 -96 -32 -158 -40 -335 -39 -163 1 -231 6 -340 29 -41 8 -86 18 -100
20 -14 3 -34 9 -45 14 -11 5 -58 24 -105 42 -47 17 -131 56 -187 86 -108 56
-113 58 -113 44 0 -5 -31 -55 -69 -112 -38 -57 -67 -107 -65 -111 16 -26 324
-179 324 -161 0 3 6 1 13 -5 13 -10 132 -47 180 -56 15 -3 35 -7 45 -10 18 -6
56 -13 112 -22 19 -3 46 -7 60 -10 126 -24 487 -23 660 1 77 10 117 16 130 20
8 2 30 7 49 10 102 17 262 85 346 146 105 76 161 163 191 297 15 69 15 181 0
251 -10 46 -64 146 -101 189 -39 44 -136 122 -154 122 -5 0 -11 4 -13 8 -3 9
-152 83 -172 86 -6 1 -17 5 -23 9 -7 5 -21 10 -30 12 -10 2 -89 24 -176 50
-87 26 -163 48 -170 49 -15 3 -123 34 -157 46 -14 4 -45 13 -70 20 -25 7 -51
14 -58 16 -7 2 -16 4 -20 5 -38 7 -188 69 -228 95 -188 120 -169 319 37 394
63 23 127 32 234 33 242 1 439 -41 641 -139 44 -21 81 -38 84 -39 7 0 84 -47
90 -54 19 -21 41 -2 100 87 36 53 67 102 69 107 2 6 9 13 15 17 8 5 7 8 -2 8
-7 0 -22 8 -32 18 -22 21 -181 101 -250 127 -25 9 -54 20 -65 25 -54 22 -188
62 -202 61 -2 0 -17 5 -35 10 -18 5 -53 12 -78 16 -73 9 -85 11 -85 13 0 4
-313 18 -318 14z"/>
<path d="M1450 9844 c0 -7 -17 -11 -42 -10 l-43 1 0 -997 0 -998 35 -1 c43 -1
144 -1 148 1 3 2 130 1 140 0 4 -1 30 -1 57 0 58 1 91 1 102 -1 4 -1 19 -1 33
0 l25 1 -1 864 -2 864 313 -2 c172 0 317 -4 321 -8 4 -5 19 -8 33 -8 59 0 182
-59 239 -113 54 -51 102 -146 119 -232 3 -16 7 -329 8 -693 2 -365 6 -666 8
-668 4 -5 179 -8 200 -4 9 2 135 2 145 0 4 -1 32 -1 62 0 81 2 84 2 95 0 6 -1
15 -2 20 -1 11 1 12 1297 2 1351 -3 14 -8 41 -11 60 -26 141 -145 326 -248
388 -16 9 -28 20 -28 24 0 4 -4 8 -10 8 -5 0 -31 13 -57 28 -73 43 -272 108
-298 98 -7 -2 -16 -1 -21 4 -5 5 -34 12 -64 15 -118 13 -147 16 -205 19 -33 2
-62 5 -65 6 -3 1 -9 1 -15 0 -25 -7 -257 -4 -262 2 -2 5 -12 4 -21 0 -21 -11
-132 -9 -149 1 -7 5 -13 4 -13 0 0 -10 -131 -10 -148 1 -7 4 -12 2 -12 -6 0
-9 -3 -9 -10 2 -5 8 -10 11 -10 5 0 -6 -66 -10 -177 -10 -107 0 -181 4 -185
10 -5 6 -8 6 -8 -1z"/>
<path d="M4 6721 c-2 -2 -4 -579 -4 -1282 l0 -1277 30 -4 c17 -3 30 -1 30 3 0
5 6 6 13 3 23 -9 98 -10 103 -2 3 5 14 4 24 -2 13 -7 21 -7 25 0 4 6 12 7 23
1 9 -5 26 -5 39 0 14 5 23 5 23 -1 0 -6 10 -6 26 0 14 6 23 7 21 2 -6 -8 50
-8 59 1 4 3 15 2 25 -3 12 -7 20 -7 24 0 4 6 12 7 23 1 9 -5 26 -5 39 0 14 5
23 5 23 -1 0 -6 10 -6 26 0 14 6 23 7 21 2 -6 -8 50 -8 59 1 4 3 15 2 25 -3
12 -7 20 -7 24 0 4 6 12 7 23 1 9 -5 26 -5 39 0 14 5 23 5 23 -1 0 -6 10 -6
26 0 14 6 23 7 21 2 -6 -8 50 -8 59 1 4 3 15 2 25 -3 12 -7 20 -7 24 0 4 6 12
7 23 1 9 -5 26 -5 39 0 14 5 23 5 23 -1 0 -6 10 -6 26 0 14 6 23 7 21 2 -6 -8
50 -8 59 1 4 3 15 2 25 -3 12 -7 20 -7 24 0 4 6 12 7 23 1 9 -5 26 -5 39 0 14
5 23 5 23 -1 0 -6 10 -6 26 0 14 6 23 7 21 2 -6 -8 50 -8 59 1 4 3 15 2 25 -3
12 -7 20 -7 24 0 4 6 12 7 23 1 9 -5 26 -5 39 0 14 5 23 5 23 -1 0 -6 10 -6
26 0 14 6 23 7 21 2 -6 -8 50 -8 59 1 4 3 15 2 25 -3 12 -7 20 -7 24 0 4 6 12
7 23 1 9 -5 26 -5 39 0 14 5 23 5 23 -1 0 -6 10 -6 26 0 14 6 23 7 21 2 -6 -8
50 -8 59 1 4 3 15 2 25 -3 12 -7 20 -7 24 0 4 6 12 7 23 1 9 -5 26 -5 39 0 14
5 23 5 23 -1 0 -6 10 -6 26 0 14 6 23 7 21 2 -6 -8 50 -8 59 1 4 3 15 2 25 -3
12 -7 20 -7 24 0 4 6 12 7 23 1 9 -5 26 -5 39 0 14 5 23 5 23 -1 0 -6 10 -6
26 0 14 6 23 6 20 2 -5 -9 69 -6 84 3 6 3 10 2 10 -4 0 -7 8 -7 25 -1 14 5 25
6 25 2 0 -4 14 -7 30 -7 17 0 30 4 30 8 0 4 9 3 19 -3 13 -6 22 -7 26 0 3 5
13 6 22 3 13 -5 15 -2 11 15 -4 12 -3 22 0 22 8 0 8 53 -1 66 -3 6 -2 16 3 23
4 8 4 27 0 42 -5 16 -6 29 -2 29 8 0 8 53 -1 66 -3 6 -2 16 3 23 4 8 4 27 0
42 -5 16 -6 29 -2 29 8 0 8 53 -1 66 -3 6 -2 16 3 23 4 8 4 27 0 42 -5 16 -6
29 -2 29 8 0 8 53 -1 66 -3 6 -2 16 3 23 4 8 4 27 0 42 -5 16 -6 29 -2 29 8 0
8 53 -1 66 -3 6 -2 16 3 23 4 8 4 27 0 42 -5 16 -6 29 -2 29 8 0 8 53 -1 66
-3 6 -2 16 3 23 4 8 4 27 0 42 -5 16 -6 29 -2 29 8 0 8 53 -1 66 -3 6 -2 16 3
23 4 8 4 27 0 42 -5 16 -6 29 -2 29 8 0 8 53 -1 66 -3 6 -2 16 3 23 4 8 4 27
0 42 -5 16 -6 29 -2 29 8 0 8 53 -1 66 -3 6 -2 16 3 23 4 8 4 27 0 42 -5 16
-6 29 -2 29 8 0 8 53 -1 66 -3 6 -2 16 3 23 4 8 4 27 0 42 -5 16 -6 29 -2 29
8 0 8 53 -1 66 -3 6 -2 16 3 23 4 8 4 27 0 42 -5 16 -6 29 -2 29 8 0 8 53 -1
66 -3 6 -2 16 3 23 4 8 4 27 0 42 -5 16 -6 29 -2 29 8 0 8 53 -1 66 -3 6 -2
16 3 23 4 8 4 27 0 42 -5 16 -6 29 -2 29 8 0 8 53 -1 66 -3 6 -2 16 3 23 4 8
4 27 0 42 -5 16 -6 29 -2 29 6 0 7 56 2 70 -1 3 -1 10 0 15 6 27 4 85 -2 85
-4 0 -4 10 1 23 5 12 5 32 0 45 -5 14 -5 22 2 22 6 0 7 5 4 11 -4 5 -17 9 -28
8 -12 0 -25 0 -29 1 -18 4 -99 2 -104 -2 -3 -3 -19 -3 -37 1 -18 4 -47 4 -64
0 -18 -3 -33 -4 -33 0 0 7 -99 6 -106 -2 -3 -2 -19 -2 -37 2 -18 4 -47 4 -64
0 -18 -3 -33 -4 -33 0 0 7 -99 6 -106 -2 -3 -2 -19 -2 -37 2 -18 4 -47 4 -64
0 -18 -3 -33 -4 -33 0 0 7 -99 6 -106 -2 -3 -2 -19 -2 -37 2 -18 4 -47 4 -64
0 -18 -3 -33 -4 -33 0 0 7 -99 6 -106 -2 -3 -2 -19 -2 -37 2 -18 4 -47 4 -64
0 -18 -3 -33 -4 -33 0 0 7 -99 6 -106 -2 -3 -2 -19 -2 -37 2 -18 4 -47 4 -64
0 -18 -3 -33 -4 -33 0 0 7 -98 6 -106 -1 -2 -3 -19 -2 -37 1 -18 4 -47 4 -64
0 -18 -4 -33 -4 -33 0 0 7 -98 6 -106 -2 -3 -2 -19 -2 -37 2 -18 4 -47 4 -64
0 -18 -3 -33 -4 -33 0 0 7 -99 6 -106 -2 -3 -2 -19 -2 -37 2 -18 4 -47 4 -64
0 -18 -3 -33 -4 -33 0 0 7 -99 6 -106 -2 -3 -2 -19 -2 -37 2 -18 4 -47 4 -64
0 -18 -3 -33 -4 -33 0 0 7 -99 9 -106 2z"/>
<path d="M6377 6234 c-1 -1 -45 -4 -97 -7 -52 -3 -102 -8 -110 -11 -8 -3 -31
-7 -50 -10 -92 -13 -235 -56 -302 -92 -14 -8 -33 -14 -42 -14 -9 0 -16 -4 -16
-10 0 -5 -5 -10 -10 -10 -13 0 -82 -44 -140 -90 -164 -129 -296 -337 -337
-530 -26 -123 -31 -180 -28 -330 2 -91 6 -178 9 -195 20 -94 41 -166 62 -212
13 -29 21 -53 18 -53 -3 0 4 -13 15 -29 12 -16 21 -32 21 -36 0 -32 172 -231
251 -291 54 -41 162 -101 183 -102 5 0 12 -4 15 -9 6 -8 91 -41 125 -48 10 -3
24 -9 30 -15 7 -5 15 -8 17 -5 3 2 29 -2 59 -10 71 -19 125 -28 172 -29 21 -1
38 -3 38 -7 0 -10 314 -1 385 11 39 6 84 14 100 17 76 12 352 117 375 143 3 3
28 21 55 40 92 63 146 118 232 235 9 11 32 52 57 100 26 49 53 117 67 165 7
25 14 50 16 55 43 133 44 421 2 588 -90 356 -302 590 -640 708 -91 31 -142 45
-204 54 -16 3 -36 7 -43 10 -18 7 -278 25 -285 19z m128 -258 c133 -18 268
-101 342 -209 15 -23 32 -45 36 -48 5 -3 9 -12 11 -20 1 -8 9 -27 18 -44 12
-24 38 -93 43 -115 1 -3 7 -25 14 -49 28 -96 42 -327 30 -481 -3 -38 -26 -175
-29 -175 -1 0 -3 -10 -6 -23 -2 -12 -13 -48 -25 -80 -11 -31 -23 -66 -26 -77
-4 -11 -9 -22 -13 -25 -3 -3 -18 -26 -33 -51 -37 -66 -103 -130 -175 -172 -34
-20 -62 -34 -62 -30 0 3 -6 1 -13 -5 -7 -6 -24 -13 -37 -16 -14 -2 -46 -9 -72
-14 -165 -32 -373 30 -484 145 -79 83 -157 235 -179 353 -42 229 -37 506 12
680 19 66 64 174 75 178 4 2 8 9 8 15 0 24 92 129 150 171 111 82 254 114 415
92z"/>
<path d="M9027 6234 c-1 -1 -36 -4 -77 -7 -244 -20 -481 -105 -646 -233 -38
-29 -135 -124 -164 -160 -57 -71 -150 -247 -150 -284 0 -9 -3 -20 -7 -24 -4
-3 -8 -12 -10 -19 -1 -7 -7 -31 -13 -54 -27 -111 -39 -328 -25 -443 6 -46 18
-122 21 -135 1 -5 10 -37 19 -70 21 -78 93 -226 145 -295 58 -78 144 -164 209
-207 31 -21 58 -40 61 -43 22 -22 227 -106 305 -126 37 -10 63 -16 85 -20 14
-2 34 -6 45 -9 72 -15 395 -29 419 -17 4 2 27 6 50 8 48 4 102 12 128 20 9 3
25 7 36 9 70 13 230 69 272 95 8 5 35 19 60 31 25 12 57 32 71 43 14 12 43 35
64 51 47 36 49 39 104 103 112 133 185 292 226 492 11 53 15 329 5 380 -4 25
-11 64 -14 87 -12 89 -118 350 -147 361 -5 2 -9 8 -9 14 0 21 -170 208 -190
208 -3 0 -15 8 -26 18 -44 40 -153 96 -299 152 -27 11 -141 41 -174 46 -14 2
-35 6 -46 9 -45 10 -319 26 -328 19z m203 -265 c61 -12 152 -54 205 -95 44
-33 125 -135 154 -193 26 -51 66 -169 76 -226 4 -22 10 -49 12 -60 15 -71 21
-312 10 -400 -15 -113 -20 -141 -28 -151 -5 -6 -7 -13 -4 -16 5 -5 -40 -140
-58 -173 -6 -11 -12 -25 -13 -30 -7 -40 -130 -179 -181 -205 -15 -8 -35 -20
-43 -26 -32 -26 -156 -56 -240 -58 -119 -4 -206 18 -320 79 -23 13 -109 93
-137 128 -36 45 -95 172 -115 247 -31 117 -42 208 -42 370 0 254 33 400 129
570 23 40 123 148 153 164 55 31 138 68 157 71 11 2 43 7 70 10 28 4 51 9 53
10 5 5 106 -5 162 -16z"/>
<path d="M4457 6154 c-1 -1 -32 -4 -69 -8 -56 -5 -149 -22 -218 -40 -60 -16
-168 -64 -225 -101 -91 -60 -179 -151 -230 -240 -25 -44 -45 -87 -45 -97 0
-10 -4 -18 -10 -18 -5 0 -10 -13 -10 -28 0 -16 -3 -32 -7 -36 -4 -3 -8 -12 -9
-19 -1 -7 -5 -28 -9 -47 -4 -19 -8 -51 -10 -70 -5 -62 -6 -1271 0 -1279 7 -12
45 -21 45 -10 0 4 6 6 13 4 21 -9 107 -11 107 -4 0 4 14 4 30 -1 18 -5 30 -5
30 0 0 6 10 6 25 0 15 -6 27 -6 30 0 3 6 15 6 30 0 15 -6 27 -6 30 1 4 5 13 6
22 0 9 -5 29 -5 45 -1 15 5 28 5 28 2 0 -9 75 -6 89 2 5 4 10 271 10 624 1
639 3 690 15 710 4 7 5 12 2 12 -9 0 45 143 60 158 8 7 14 17 14 21 0 13 64
76 110 108 105 74 193 90 499 91 124 1 242 1 262 2 l35 0 0 134 -1 133 -343 0
c-189 -1 -344 -2 -345 -3z"/>
<path d="M10715 6146 c-2 -6 -3 -454 -2 -996 2 -931 3 -985 20 -984 9 1 17 -2
17 -6 0 -5 13 -5 30 0 17 5 32 5 35 0 3 -5 16 -5 30 0 15 6 25 6 25 0 0 -5 12
-5 30 0 17 5 30 6 30 2 0 -4 25 -7 55 -7 30 0 55 3 55 7 0 4 11 3 25 -2 15 -6
26 -6 30 0 4 6 13 7 24 1 10 -6 23 -6 31 -1 8 5 22 4 32 -1 10 -5 18 -6 18 -1
0 5 11 7 25 4 l25 -4 0 865 0 866 364 0 365 0 0 -199 c0 -109 1 -202 2 -207 1
-4 1 -12 0 -18 -1 -5 -1 -91 -1 -190 1 -99 1 -184 1 -190 0 -9 -1 -111 -1
-160 0 -11 0 -68 0 -127 0 -59 0 -111 1 -115 1 -4 1 -12 0 -18 -1 -5 -2 -71
-1 -145 1 -74 1 -142 1 -150 -2 -54 0 -124 4 -131 3 -4 1 -10 -5 -14 -7 -4 -7
-12 0 -26 8 -13 7 -19 0 -19 -6 0 -8 -5 -5 -11 4 -5 12 -8 18 -6 7 2 22 0 34
-4 13 -5 25 -4 28 1 4 6 13 7 24 1 10 -6 23 -6 31 -1 8 5 21 5 30 0 9 -5 23
-4 32 1 10 6 19 6 23 0 3 -7 15 -7 30 -1 15 6 27 6 30 0 3 -6 15 -6 30 0 15 6
25 6 25 0 0 -5 12 -5 30 0 17 5 30 6 30 2 0 -4 14 -7 30 -7 17 0 30 2 30 5 0
3 20 5 43 3 l44 -2 -1 864 -1 865 160 -3 c163 -4 273 -22 323 -55 12 -8 22
-11 22 -8 0 14 94 -60 126 -100 49 -59 72 -116 91 -219 2 -16 6 -320 8 -675 4
-732 3 -673 13 -666 4 2 14 1 22 -4 8 -5 21 -5 31 1 11 6 20 5 24 -1 4 -6 15
-6 30 0 15 6 25 6 25 0 0 -5 12 -5 28 -1 15 5 37 5 49 0 13 -5 25 -4 28 1 4 6
13 7 24 1 10 -6 23 -6 31 -1 8 5 21 5 30 0 9 -5 23 -4 32 1 10 6 19 6 23 0 3
-7 15 -7 30 -1 15 6 27 6 30 0 3 -6 15 -6 30 0 16 6 25 6 25 -1 0 -6 6 -6 18
0 16 9 17 47 16 668 -1 583 -3 667 -18 738 -10 44 -22 85 -27 91 -5 6 -10 20
-12 31 -1 11 -9 31 -18 44 -8 13 -21 37 -29 54 -26 52 -161 180 -233 219 -83
46 -197 91 -257 101 -25 4 -49 10 -55 13 -11 7 -9 7 -95 17 -36 4 -74 9 -85
12 -11 3 -519 6 -1128 8 -805 2 -1110 -1 -1112 -9z"/>
</g>
</svg>
